<?xml version="1.0" encoding="utf-8"?>
<!-- Generator: Adobe Illustrator 27.0.1, SVG Export Plug-In . SVG Version: 6.00 Build 0)  -->
<svg version="1.1" id="レイヤー_1" xmlns="http://www.w3.org/2000/svg" xmlns:xlink="http://www.w3.org/1999/xlink" x="0px"
	 y="0px" viewBox="0 0 305 349" style="enable-background:new 0 0 305 349;" xml:space="preserve">
<style type="text/css">
	.st0{fill:#231815;}
	.st1{font-family:'TA-hougan_k500-83pv-RKSJ-H';}
	.st2{font-size:21.8785px;}
	.st3{font-family:'SourceHanCodeJP-Regular-83pv-RKSJ-H';}
	.st4{font-size:8.3242px;}
	.st5{letter-spacing:2;}
	.st6{fill:none;stroke:#040000;stroke-miterlimit:10;}
	.st7{font-size:6px;}
	.st8{fill:#E61F19;}
	.st9{fill:none;stroke:#39ADE4;stroke-miterlimit:10;}
	.st10{fill:none;stroke:#231815;stroke-miterlimit:10;}
	.st11{font-family:'AB-roman-83pv-RKSJ-H';}
	.st12{font-size:25.2482px;}
	.st13{letter-spacing:-3;}
	.st14{font-family:'UDShinGoPr6N-Light-83pv-RKSJ-H';}
	.st15{font-size:8.955px;}
	.st16{fill:#9E6824;stroke:#231815;stroke-miterlimit:10;}
	.st17{fill:#9E6824;}
	.st18{fill:#D08A40;}
</style>
<text transform="matrix(1 0 0 1 34.1969 75.1342)" class="st0 st1 st2">吉形 凌空</text>
<text transform="matrix(1 0 0 1 35.5095 118.3103)"><tspan x="0" y="0" class="st0 st3 st4">〒705-0026 岡山県備前市佐</tspan><tspan x="116.56" y="0" class="st0 st3 st4 st5">山</tspan><tspan x="126.97" y="0" class="st0 st3 st4">1974-1</tspan><tspan x="0" y="14.57" class="st0 st3 st4">Mobile 090-2295-9336</tspan><tspan x="0" y="29.13" class="st0 st3 st4">Mail yoshikata.riku@yoshikata-riku.net</tspan></text>
<rect x="20.02" y="9.23" class="st6" width="257.95" height="155.91"/>
<text transform="matrix(1 0 0 1 42.6643 49.2234)" class="st0 st1 st7">ヨシカタ 　　　　　　リク</text>
<g>
	<path class="st8" d="M234.23,26.4c0,0,4.95,18.11,2.51,21c0,0-3.99,16.28-10.16,17.91c0,0,4.33,1.31,10.25-0.02
		c0,0,0.63-10.9,4.21-10.95s9.47,8.73,9.7,10.95c0,0,8.43,1.78,12.11,0.02c0,0-9.06-15.63-13.37-17.91c0,0-3.06-17.38-1.08-19.5
		C248.41,27.9,236.22,25.32,234.23,26.4z"/>
	<path class="st9" d="M226.52,27.51c0,0,1.08,32.69,0,37.78c0,0,7.09,0.93,10.32,0c0,0-1.57-11.33-0.38-14.25
		c0,0,8.64-3.26,10.43,3.09c0,0,5.13,8.79,3.87,11.16c0,0,9.45,1.18,11.23,0c0,0-0.41-18.29-10.94-17.64c0,0,21.15-13.28-2.63-19.75
		C248.41,27.9,231.82,25.06,226.52,27.51z"/>
	<path class="st9" d="M236.45,35.25c0,0-1.28,5.9,0,8.05c0,0,6.84,1.64,9.98-0.64c0,0,7.9-4.16-1.17-7.41
		C245.27,35.25,241.45,34.02,236.45,35.25z"/>
</g>
<rect x="20.02" y="183.86" class="st10" width="257.95" height="155.91"/>
<g>
	<path class="st8" d="M229.34,201.69c0,0,4.95,18.11,2.51,21c0,0-3.99,16.28-10.16,17.91c0,0,4.33,1.31,10.25-0.02
		c0,0,0.63-10.9,4.21-10.95s9.47,8.73,9.7,10.95c0,0,8.43,1.78,12.11,0.02c0,0-9.06-15.63-13.37-17.91c0,0-3.06-17.38-1.08-19.5
		C243.51,203.19,231.33,200.61,229.34,201.69z"/>
	<path class="st9" d="M221.63,202.81c0,0,1.08,32.69,0,37.78c0,0,7.09,0.93,10.32,0c0,0-1.57-11.33-0.38-14.25
		c0,0,8.64-3.26,10.43,3.09c0,0,5.13,8.79,3.87,11.16c0,0,9.45,1.18,11.23,0c0,0-0.41-18.29-10.94-17.64c0,0,21.15-13.28-2.63-19.75
		C243.51,203.19,226.93,200.35,221.63,202.81z"/>
	<path class="st9" d="M231.56,210.54c0,0-1.28,5.9,0,8.05c0,0,6.84,1.64,9.98-0.64c0,0,7.9-4.16-1.17-7.41
		C240.37,210.54,236.56,209.31,231.56,210.54z"/>
</g>
<text transform="matrix(1 0 0 1 34.1969 267.1956)"><tspan x="0" y="0" class="st0 st11 st12 st13">Y</tspan><tspan x="16.39" y="0" class="st0 st11 st12">oshikata Riku</tspan></text>
<text transform="matrix(1 0 0 1 39.1209 304.2483)"><tspan x="0" y="0" class="st0 st14 st15">Mobile +819022959336</tspan><tspan x="0" y="15.67" class="st0 st14 st15">Mail yoshikata.riku@yoshikata-riku.net</tspan></text>
</svg>
