<?xml version="1.0" encoding="utf-8"?>
<!-- Generator: Adobe Illustrator 27.0.1, SVG Export Plug-In . SVG Version: 6.00 Build 0)  -->
<svg version="1.1" id="レイヤー_1" xmlns="http://www.w3.org/2000/svg" xmlns:xlink="http://www.w3.org/1999/xlink" x="0px"
	 y="0px" viewBox="0 0 397 274" style="enable-background:new 0 0 397 274;" xml:space="preserve">
<style type="text/css">
	.st0{fill:none;stroke:#040000;stroke-miterlimit:10;}
	.st1{fill:#E61F19;}
	.st2{fill:none;stroke:#39ADE4;stroke-miterlimit:10;}
	.st3{fill:none;stroke:#231815;stroke-miterlimit:10;}
	.st4{fill:#9E6824;stroke:#231815;stroke-miterlimit:10;}
	.st5{fill:#9E6824;}
	.st6{fill:#D08A40;}
	.st7{fill:#FFFFFF;}
	.st8{font-family:'KozGoPro-Bold-83pv-RKSJ-H';}
	.st9{font-size:96.6354px;}
</style>
<g>
	<path class="st5" d="M14.03,146.08c0,0-30.23,152.53,236.36,92.07c0,0,151.16,14.19,131.92-71.92S224.94,78.75,198.5,10.04
		L14.03,146.08z"/>
	<path class="st6" d="M14.03,146.08c0,0-5.98,32.42,20.13,70.9c0,0,14.74,43.98,159.03,31.61c18.04-1.55,43.37-8.47,57.2-10.44
		c16.52-2.36,27.67,4.2,42.07,3.42c32.32-1.76,62.18-10.12,72.34-23.6c5.92-7.86,20.25-20.06,19.12-34.71
		c-0.68-8.82-1.21-19.19-4.76-27.74c-1.69-4.06-1.64-6.33-2.87-9.45c-0.48-1.22-12.39-6.65-1.03-6.87L14.03,146.08z"/>
	<text transform="matrix(1 0 0 1 86.4629 186.875)" class="st7 st8 st9">KURI</text>
</g>
</svg>
